<?xml version="1.0" standalone="no"?>
<svg xmlns:xlink="http://www.w3.org/1999/xlink" id="wave" style="transform:rotate(0deg); transition: 0.3s" viewBox="0 0 1440 130" version="1.1" xmlns="http://www.w3.org/2000/svg"><defs><linearGradient id="sw-gradient-0" x1="0" x2="0" y1="1" y2="0"><stop stop-color="rgba(217, 160, 102, 1)" offset="0%"/><stop stop-color="rgba(217, 160, 102, 1)" offset="100%"/></linearGradient></defs><path style="transform:translate(0, 0px); opacity:1" fill="url(#sw-gradient-0)" d="M0,52L48,47.7C96,43,192,35,288,36.8C384,39,480,52,576,67.2C672,82,768,100,864,104C960,108,1056,100,1152,86.7C1248,74,1344,56,1440,52C1536,48,1632,56,1728,56.3C1824,56,1920,48,2016,41.2C2112,35,2208,30,2304,36.8C2400,43,2496,61,2592,67.2C2688,74,2784,69,2880,65C2976,61,3072,56,3168,62.8C3264,69,3360,87,3456,91C3552,95,3648,87,3744,69.3C3840,52,3936,26,4032,23.8C4128,22,4224,43,4320,47.7C4416,52,4512,39,4608,36.8C4704,35,4800,43,4896,47.7C4992,52,5088,52,5184,56.3C5280,61,5376,69,5472,80.2C5568,91,5664,104,5760,93.2C5856,82,5952,48,6048,45.5C6144,43,6240,74,6336,82.3C6432,91,6528,78,6624,62.8C6720,48,6816,30,6864,21.7L6912,13L6912,130L6864,130C6816,130,6720,130,6624,130C6528,130,6432,130,6336,130C6240,130,6144,130,6048,130C5952,130,5856,130,5760,130C5664,130,5568,130,5472,130C5376,130,5280,130,5184,130C5088,130,4992,130,4896,130C4800,130,4704,130,4608,130C4512,130,4416,130,4320,130C4224,130,4128,130,4032,130C3936,130,3840,130,3744,130C3648,130,3552,130,3456,130C3360,130,3264,130,3168,130C3072,130,2976,130,2880,130C2784,130,2688,130,2592,130C2496,130,2400,130,2304,130C2208,130,2112,130,2016,130C1920,130,1824,130,1728,130C1632,130,1536,130,1440,130C1344,130,1248,130,1152,130C1056,130,960,130,864,130C768,130,672,130,576,130C480,130,384,130,288,130C192,130,96,130,48,130L0,130Z"/></svg>